<?xml version="1.0" encoding="UTF-8"?>
<svg id="Layer_1" data-name="Layer 1" xmlns="http://www.w3.org/2000/svg" viewBox="0 0 810.5 621.04">
  <defs>
    <style>
      .cls-1 {
        fill: #f5165d;
      }

      .cls-2 {
        stroke: #3086e9;
      }

      .cls-2, .cls-3, .cls-4 {
        fill: none;
        stroke-miterlimit: 10;
        stroke-width: 20px;
      }

      .cls-5 {
        fill: #3086e9;
      }

      .cls-3 {
        stroke-linecap: round;
      }

      .cls-3, .cls-4 {
        stroke: #f5165d;
      }
    </style>
  </defs>
  <path class="cls-1" d="m0,620.99c129.47-67.04,136.77-147.89,97.07-168.33-28.73-14.79-56.49,9.28-68.33,39.71-14.54,37.38,27.66,69.23-28.74,128.62Z"/>
  <path class="cls-4" d="m107.74,438.84c14.4,4.21,64.21-18.07,98.35-74.4C275.09,250.6,392.12,20.91,373.62,10.43c-21.49-12.17-208.74,235.88-250.34,329.81-25.99,58.71-46.77,89.47-15.55,98.59Z"/>
  <path class="cls-5" d="m810.5,621.04c-129.47-67.04-136.77-147.89-97.07-168.33,28.73-14.79,56.49,9.28,68.33,39.71,14.54,37.38-27.66,69.23,28.74,128.62Z"/>
  <path class="cls-2" d="m702.76,438.89c-14.4,4.21-64.21-18.07-98.35-74.4C535.41,250.65,418.38,20.96,436.88,10.48c21.49-12.17,208.74,235.88,250.34,329.81,25.99,58.71,46.77,89.47,15.55,98.59Z"/>
  <path class="cls-3" d="m292.26,571.24c-57.11-27.39-92.4-39.19-81-62,23.38-46.76,354.34,39.1,371-4,3.4-8.8-4.69-27.36-71-72"/>
</svg>